HIERARCHY
ROOT RootJoint
{
    OFFSET   0.000000   0.000000   0.000000
    CHANNELS 6 Xposition Yposition Zposition Xrotation Yrotation Zrotation
    JOINT pelvis_lowerback
    {
        OFFSET   0.000000   0.093605   0.000000
        CHANNELS 3 Xrotation Yrotation Zrotation
        JOINT lowerback_torso
        {
            OFFSET   0.000000   0.100000   0.000000
            CHANNELS 3 Xrotation Yrotation Zrotation
            JOINT torso_head
            {
                OFFSET   0.000000   0.282350   0.000000
                CHANNELS 3 Xrotation Yrotation Zrotation
                End Site
                {
                    OFFSET   0.000000   0.192650   0.000000
                }
            }
            JOINT rTorso_Clavicle
            {
                OFFSET  -0.001000   0.157500   0.000000
                CHANNELS 3 Xrotation Yrotation Zrotation
                JOINT rShoulder
                {
                    OFFSET  -0.117647   0.000000   0.000000
                    CHANNELS 3 Xrotation Yrotation Zrotation
                    JOINT rElbow
                    {
                        OFFSET  -0.245000   0.000000   0.000000
                        CHANNELS 3 Xrotation Yrotation Zrotation
                        JOINT rWrist
                        {
                            OFFSET  -0.240000   0.000000   0.000000
                            CHANNELS 3 Xrotation Yrotation Zrotation
                            End Site
                            {
                                OFFSET  -0.116353  -0.002500   0.000000
                            }
                        }
                    }
                }
            }
            JOINT lTorso_Clavicle
            {
                OFFSET   0.001000   0.157500   0.000000
                CHANNELS 3 Xrotation Yrotation Zrotation
                JOINT lShoulder
                {
                    OFFSET   0.117647   0.000000   0.000000
                    CHANNELS 3 Xrotation Yrotation Zrotation
                    JOINT lElbow
                    {
                        OFFSET   0.245000   0.000000   0.000000
                        CHANNELS 3 Xrotation Yrotation Zrotation
                        JOINT lWrist
                        {
                            OFFSET   0.240000   0.000000   0.000000
                            CHANNELS 3 Xrotation Yrotation Zrotation
                            End Site
                            {
                                OFFSET   0.116353  -0.002500   0.000000
                            }
                        }
                    }
                }
            }
        }
    }
    JOINT rHip
    {
        OFFSET  -0.100000  -0.051395   0.000000
        CHANNELS 3 Xrotation Yrotation Zrotation
        JOINT rKnee
        {
            OFFSET   0.000000  -0.410000   0.000000
            CHANNELS 3 Xrotation Yrotation Zrotation
            JOINT rAnkle
            {
                OFFSET   0.000000  -0.390000   0.000000
                CHANNELS 3 Xrotation Yrotation Zrotation
                JOINT rToeJoint
                {
                    OFFSET   0.000000  -0.050000   0.130000
                    CHANNELS 3 Xrotation Yrotation Zrotation
                    End Site
                    {
                        OFFSET  -0.010000   0.002000   0.060000
                    }
                }
            }
        }
    }
    JOINT lHip
    {
        OFFSET   0.100000  -0.051395   0.000000
        CHANNELS 3 Xrotation Yrotation Zrotation
        JOINT lKnee
        {
            OFFSET   0.000000  -0.410000   0.000000
            CHANNELS 3 Xrotation Yrotation Zrotation
            JOINT lAnkle
            {
                OFFSET   0.000000  -0.390000   0.000000
                CHANNELS 3 Xrotation Yrotation Zrotation
                JOINT lToeJoint
                {
                    OFFSET   0.000000  -0.050000   0.130000
                    CHANNELS 3 Xrotation Yrotation Zrotation
                    End Site
                    {
                        OFFSET   0.010000   0.002000   0.060000
                    }
                }
            }
        }
    }
}
MOTION
Frames: 17
Frame Time:   0.008333
 -1.938377   0.901375   3.943240  -4.260774  24.743736   4.008739   3.701640   0.871097  -0.038691  -1.194044   0.120701  -1.743805  -1.286710  -4.423054   3.830070  -6.382957   7.252656 -11.577349 -17.763286  20.266187  10.875501  -0.002461  82.389188  -0.021788   1.329857   7.759696  -3.884021   3.029281  -2.457523  -2.328977  13.932379  -8.994655 -40.601494  -0.025792 -50.188137  -0.027874   2.271448  -4.053211   2.451737  -6.645888  -6.665702 -12.340675  28.988782  -0.007862  -0.011408 -13.058264 -13.682385   0.773341  -2.134474  -0.000043   0.001436  -3.370869  13.349523   9.148968  14.639973   0.000152   0.001901  -6.095860  13.233150   0.599848   1.531793  -0.000083  -0.000111
 -1.938222   0.901397   3.944841  -4.196487  23.998359   3.846358   3.688859   0.810430   0.025393  -1.189062   0.054144  -1.852641  -1.187576  -4.550906   3.841364  -6.560754   7.362226 -12.150160 -18.234121  20.504390  10.651202  -0.006178  82.673991  -0.016531   1.241435   7.904221  -3.660033   3.107961  -2.632972  -2.248098  14.306182  -9.109074 -40.879230  -0.022942 -50.004412  -0.025127   2.303481  -3.995629   2.342810  -6.911900  -6.826898 -11.921384  29.091712  -0.006893  -0.009741 -13.282105 -13.809373   0.496386  -1.841990  -0.000541  -0.001308  -3.133629  13.752476   9.314212  14.565433   0.000212   0.001750  -6.218869  13.597754   0.505872   1.531826  -0.000066  -0.000089
 -1.938311   0.901365   3.946558  -4.124014  23.197655   3.677027   3.667629   0.749725   0.074453  -1.193453  -0.005781  -1.965158  -1.080731  -4.672423   3.855315  -6.771885   7.472342 -12.745826 -18.706006  20.732931  10.402863  -0.009081  82.934485  -0.012348   1.155306   8.011977  -3.553537   3.184064  -2.785919  -2.139924  14.658792  -9.205889 -41.121218  -0.020368 -49.834096  -0.022684   2.335054  -3.948510   2.265503  -7.164523  -7.008327 -11.457709  29.147007  -0.005866  -0.008146 -13.506509 -13.941591   0.231278  -1.735117  -0.000680  -0.002004  -2.899285  14.184203   9.494052  14.495096   0.000266   0.001631  -6.345552  14.001223   0.430810   1.540242  -0.000057  -0.000070
 -1.938587   0.901274   3.948367  -4.047038  22.391591   3.518183   3.634971   0.675232   0.104281  -1.214409  -0.074150  -2.086829  -0.976460  -4.786444   3.868633  -6.993954   7.572311 -13.336326 -19.161807  20.946743  10.147761  -0.011000  83.176365  -0.009261   1.073796   8.102826  -3.524690   3.253707  -2.927303  -2.020720  14.987719  -9.292304 -41.334273  -0.018070 -49.674154  -0.020503   2.365934  -3.898055   2.212000  -7.399154  -7.197873 -10.993841  29.186112  -0.004943  -0.006768 -13.728512 -14.075970  -0.021550  -1.770779  -0.000457  -0.001280  -2.674128  14.632617   9.668374  14.428361   0.000309   0.001517  -6.466311  14.425866   0.366577   1.553218  -0.000053  -0.000051
 -1.939022   0.901128   3.950255  -3.968109  21.595287   3.370647   3.588875   0.587799   0.119536  -1.251521  -0.153200  -2.214432  -0.877646  -4.893274   3.880267  -7.216025   7.660362 -13.907118 -19.595261  21.144722   9.895776  -0.012027  83.401305  -0.007090   0.996451   8.182918  -3.539553   3.315499  -3.061972  -1.900268  15.292288  -9.373195 -41.525437  -0.016010 -49.524953  -0.018522   2.395969  -3.847648   2.175085  -7.612929  -7.386961 -10.544999  29.220657  -0.004171  -0.005635 -13.945847 -14.208315  -0.261483  -1.905143  -0.000044   0.000181  -2.457385  15.081983   9.837279  14.365208   0.000342   0.001409  -6.582811  14.853323   0.311946   1.570407  -0.000054  -0.000032
 -1.939603   0.900930   3.952208  -3.888392  20.812343   3.233077   3.529425   0.490530   0.124214  -1.303031  -0.241190  -2.344266  -0.785379  -4.993278   3.890289  -7.432203   7.737453 -14.450990 -20.004014  21.327715   9.652352  -0.012311  83.610800  -0.005656   0.922829   8.255293  -3.578505   3.369338  -3.191938  -1.783795  15.573171  -9.451050 -41.699369  -0.014160 -49.386566  -0.016709   2.425180  -3.802155   2.149602  -7.805920  -7.571274 -10.119134  29.255151  -0.003544  -0.004725 -14.156880 -14.336431  -0.488457  -2.106675   0.000408   0.001920  -2.248529  15.524187  10.002816  14.306613   0.000366   0.001304  -6.695130  15.274997   0.265360   1.588966  -0.000059  -0.000016
 -1.940324   0.900691   3.954214  -3.808787  20.041535   3.104940   3.458051   0.386885   0.120531  -1.366547  -0.335295  -2.473823  -0.699956  -5.086833   3.899003  -7.639206   7.805235 -14.964536 -20.387554  21.497179   9.420500  -0.011998  83.806315  -0.004814   0.852660   8.322665  -3.630171   3.415754  -3.317800  -1.673830  15.831747  -9.526835 -41.858980  -0.012503 -49.258566  -0.015049   2.453583  -3.764024   2.132412  -7.979260  -7.748363  -9.721464  29.290744  -0.003039  -0.004001 -14.360263 -14.459302  -0.702743  -2.350663   0.000803   0.003645  -2.047696  15.954891  10.166483  14.255576   0.000377   0.001196  -6.798853  15.686494   0.225002   1.598646  -0.000057  -0.000008
 -1.941714   0.901015   3.956156  -3.817166  19.276878   3.076346   3.492114   0.286688   0.014555  -1.384711  -0.440679  -2.640602  -0.598130  -5.180328   3.919252  -7.812468   7.848968 -15.434266 -20.935587  21.662079   9.130475  -0.011178  83.921171  -0.003784   0.756595   8.445328  -3.524839   3.442835  -3.437222  -1.594648  15.991997  -9.513357 -41.935881  -0.010619 -49.183507  -0.012926   2.490877  -3.730112   2.149025  -7.934472  -7.727072  -9.220004  28.972328  -0.000542  -0.001956 -14.413019 -14.248782  -0.966528  -1.789736  -0.000861   0.000912  -2.200721  16.395755  10.401722  14.897596  -0.000746  -0.000415  -6.416509  16.240223  -0.051402   0.567671   0.000747  -0.002610
 -1.943333   0.901650   3.958218  -3.865234  18.388080   3.066582   3.530718   0.235832  -0.080275  -1.379974  -0.506846  -2.831572  -0.487371  -5.265224   3.930756  -8.000353   7.905216 -15.920624 -21.466299  21.826090   8.832502  -0.010142  84.020804  -0.003177   0.663070   8.536237  -3.470636   3.474433  -3.531547  -1.517573  16.146140  -9.493591 -42.012072  -0.009042 -49.116003  -0.011134   2.525797  -3.713514   2.192610  -7.834118  -7.731171  -8.725716  28.695592   0.001324  -0.000135 -14.536072 -14.118466  -1.244351  -1.929152  -0.000317   0.001502  -2.375376  16.847550  10.670874  15.681384  -0.002176  -0.002590  -5.811976  16.795685  -0.299419  -0.889937   0.003730  -0.004643
 -1.944904   0.902037   3.960407  -3.899234  17.357877   2.961884   3.526143   0.229442  -0.069305  -1.391043  -0.531566  -2.989988  -0.378148  -5.342929   3.939421  -8.200980   7.976107 -16.437998 -21.978390  21.992528   8.522895  -0.009235  84.106486  -0.002614   0.571772   8.599257  -3.463421   3.521105  -3.596627  -1.441638  16.302986  -9.470932 -42.102689  -0.007662 -49.059508  -0.009570   2.559024  -3.725313   2.203440  -7.733993  -7.736525  -8.279042  28.453378   0.002430   0.001556 -14.654984 -14.044515  -1.542200  -1.795985  -0.000424   0.000207  -2.501410  17.253268  11.013442  16.536255  -0.003888  -0.005898  -4.867132  17.293478  -0.523182  -4.956832   0.018989  -0.001431
 -1.946754   0.902646   3.962691  -3.929808  16.286786   2.921901   3.506500   0.215677  -0.150274  -1.419395  -0.554113  -3.158031  -0.277784  -5.416271   3.956938  -8.393156   8.038704 -16.908032 -22.460942  22.151728   8.237680  -0.008188  84.194467  -0.002502   0.487327   8.678242  -3.494394   3.567179  -3.649390  -1.360505  16.454925  -9.435922 -42.168098  -0.006599 -48.995886  -0.008398   2.590268  -3.698667   2.237297  -7.629523  -7.727177  -7.911108  28.188684   0.003427   0.003164 -14.706855 -13.923277  -1.786584  -1.677460  -0.000521  -0.000711  -2.624134  17.657685  11.326762  17.323814  -0.005464  -0.008395  -4.295726  17.798627  -0.735560  -6.059989   0.018811   0.000075
 -1.948800   0.903263   3.965050  -3.959741  15.166867   2.882407   3.471289   0.205217  -0.228650  -1.459959  -0.572161  -3.328728  -0.185533  -5.484818   3.968622  -8.579466   8.099881 -17.364226 -22.915232  22.303552   7.963320  -0.006991  84.275097  -0.002667   0.406087   8.753426  -3.541567   3.612463  -3.694126  -1.275564  16.599069  -9.400551 -42.228007  -0.005696 -48.937025  -0.007405   2.619489  -3.666398   2.273805  -7.532566  -7.715741  -7.535033  27.929648   0.004241   0.004510 -14.749882 -13.787964  -2.000217  -1.495661  -0.000765  -0.001968  -2.730364  18.034060  11.651728  18.100898  -0.007012  -0.010764  -3.617986  18.262392  -0.943562  -7.388352   0.020168   0.002892
 -1.950984   0.903796   3.967462  -3.987592  14.005060   2.839882   3.420091   0.195059  -0.298049  -1.512908  -0.588375  -3.493239  -0.100241  -5.548865   3.978198  -8.760749   8.158950 -17.805166 -23.343365  22.448488   7.699198  -0.005756  84.349267  -0.002979   0.328284   8.822138  -3.601454   3.655623  -3.733690  -1.191183  16.734521  -9.366681 -42.283479  -0.004922 -48.883127  -0.006554   2.647413  -3.638311   2.309397  -7.446121  -7.711242  -7.141845  27.693856   0.004816   0.005499 -14.808717 -13.651157  -2.191114  -1.312948  -0.001034  -0.003055  -2.809582  18.388526  11.980878  18.853123  -0.008426  -0.012878  -2.900686  18.698053  -1.141911  -8.824420   0.022186   0.006621
 -1.953622   0.904071   3.969684  -4.098993  12.890402   2.814249   3.475167   0.169416  -0.389879  -1.530016  -0.599274  -3.663451   0.017091  -5.633159   3.953520  -8.894710   8.190845 -18.324139 -23.796736  22.500144   7.317672  -0.004614  84.331431  -0.002109   0.263054   8.926039  -3.625001   3.689297  -3.766949  -1.103105  16.702121  -9.295632 -42.227231  -0.003837 -48.902877  -0.005050   2.665559  -3.654053   2.300602  -7.120692  -7.461692  -6.653127  27.146870   0.006782   0.007309 -14.946225 -13.131530  -2.395380  -1.279478  -0.000928  -0.002513  -3.376971  18.440349  12.552388  20.726911  -0.015671  -0.022398  -2.001603  18.972482  -1.536650 -11.408066   0.030555   0.019382
 -1.956149   0.904199   3.971968  -4.231800  11.596395   2.755933   3.515463   0.208588  -0.425925  -1.531696  -0.565441  -3.831912   0.142670  -5.707587   3.924267  -9.036974   8.231226 -18.849218 -24.229941  22.555905   6.935900  -0.003825  84.304200  -0.001144   0.201503   8.984390  -3.649585   3.719924  -3.778416  -1.021358  16.670485  -9.220725 -42.173181  -0.002966 -48.924787  -0.003820   2.682878  -3.702529   2.354643  -6.752619  -7.203785  -6.310212  26.704427   0.007375   0.009149 -15.200674 -12.735427  -2.649078  -0.781022  -0.001248  -0.004480  -3.928816  18.472171  13.175577  22.727186  -0.023879  -0.033266  -0.958697  19.217154  -1.928835 -14.399215   0.041290   0.038038
 -1.958704   0.904214   3.974272  -4.353700  10.171796   2.672817   3.531085   0.267823  -0.458781  -1.545060  -0.510802  -3.983019   0.261495  -5.776137   3.901041  -9.177143   8.275511 -19.350857 -24.640669  22.615918   6.573349  -0.003292  84.279730  -0.000316   0.142997   9.036658  -3.696041   3.754940  -3.773383  -0.934874  16.648024  -9.139297 -42.116986  -0.002291 -48.941696  -0.002877   2.698940  -3.740462   2.433326  -6.402871  -6.936854  -5.963859  26.259371   0.007963   0.011123 -15.463001 -12.270649  -2.821827  -0.318720  -0.001800  -0.006119  -4.428100  18.494320  13.808895  24.686291  -0.031885  -0.043264   0.069777  19.445652  -2.303691 -16.804563   0.046476   0.052392
 -1.961248   0.904140   3.976553  -4.461850   8.648194   2.577258   3.525308   0.330240  -0.490388  -1.572162  -0.450585  -4.123986   0.370803  -5.840237   3.880304  -9.312221   8.318776 -19.824662 -25.027254  22.676292   6.231719  -0.002957  84.258248   0.000389   0.087642   9.092851  -3.756475   3.791822  -3.759653  -0.848270  16.631737  -9.056044 -42.060892  -0.001769 -48.954327  -0.002160   2.713684  -3.761348   2.521456  -6.088577  -6.683995  -5.619071  25.835015   0.008461   0.012948 -15.736512 -11.821196  -2.969823   0.105427  -0.002294  -0.007719  -4.860365  18.510193  14.422265  26.564184  -0.039099  -0.051717   1.075847  19.657605  -2.661694 -18.591787   0.046976   0.060406
